<?xml version="1.0" encoding="UTF-8" standalone="no"?>
<!-- Created with Inkscape (http://www.inkscape.org/) -->

<svg
   width="76.598457mm"
   height="74.918922mm"
   viewBox="0 0 76.598457 74.918922"
   version="1.1"
   id="svg1"
   xml:space="preserve"
   inkscape:version="1.3.2 (091e20e, 2023-11-25, custom)"
   sodipodi:docname="fisico.svg"
   xmlns:inkscape="http://www.inkscape.org/namespaces/inkscape"
   xmlns:sodipodi="http://sodipodi.sourceforge.net/DTD/sodipodi-0.dtd"
   xmlns="http://www.w3.org/2000/svg"
   xmlns:svg="http://www.w3.org/2000/svg"><sodipodi:namedview
     id="namedview1"
     pagecolor="#ffffff"
     bordercolor="#000000"
     borderopacity="0.25"
     inkscape:showpageshadow="2"
     inkscape:pageopacity="0.0"
     inkscape:pagecheckerboard="0"
     inkscape:deskcolor="#d1d1d1"
     inkscape:document-units="mm"
     inkscape:zoom="0.69219276"
     inkscape:cx="478.1905"
     inkscape:cy="559.81516"
     inkscape:window-width="1920"
     inkscape:window-height="991"
     inkscape:window-x="-9"
     inkscape:window-y="-9"
     inkscape:window-maximized="1"
     inkscape:current-layer="layer1" /><defs
     id="defs1"><pattern
       id="EMFhbasepattern"
       patternUnits="userSpaceOnUse"
       width="6"
       height="6"
       x="0"
       y="0" /></defs><g
     inkscape:label="Capa 1"
     inkscape:groupmode="layer"
     id="layer1"><path
       style="fill:#000000;stroke-width:0.301578"
       d="M 8.0045789,72.783451 C 7.7004529,72.688809 7.464516,72.486654 7.2566324,72.14244 7.0922749,71.870303 7.0918548,71.844901 7.0915591,62.159601 L 7.0912625,52.449604 6.6515822,51.336976 C 3.4453827,43.22363 3.4353855,34.146474 6.6237079,26.02534 L 7.0912644,24.8344 v -6.849844 c 0,-7.507377 -0.026873,-7.083437 0.476126,-7.510676 0.133967,-0.113791 0.3764854,-0.244148 0.5389298,-0.289689 0.190024,-0.05327 2.2588048,-0.08296 5.8010538,-0.08324 l 5.505707,-4.55e-4 0.530128,-0.3451915 c 7.20998,-4.6947022 16.346684,-6.403997 24.932515,-4.6643674 4.006416,0.811764 8.088091,2.4679138 11.380404,4.617638 l 0.600242,0.3919259 5.515004,4.55e-4 c 3.548649,2.91e-4 5.620317,0.02997 5.81036,0.08324 0.162442,0.04552 0.404966,0.175903 0.53893,0.289688 0.503012,0.427251 0.47613,0.003 0.47613,7.515345 v 6.854519 l 0.350248,0.865599 c 3.331129,8.232438 3.332812,17.58931 0.0049,25.843999 l -0.354877,0.880185 v 9.707132 c 0,9.642558 -9.73e-4,9.709073 -0.163074,9.999996 -0.08967,0.161081 -0.292564,0.382451 -0.450833,0.491926 l -0.287769,0.199042 -30.026147,0.01295 C 20.072961,72.852194 8.1492074,72.828296 8.0048201,72.783451 Z M 23.491254,69.514587 C 20.122291,67.871501 17.272952,65.859417 14.565407,63.211512 12.94034,61.62224 11.333665,59.710853 10.160804,57.971582 L 9.8709243,57.541706 v 6.262067 6.262068 l 7.3660907,-0.0048 7.3661,-0.0048 z m 17.432432,0.398209 0.51622,-0.05503 -0.277966,-0.1259 c -0.486526,-0.22037 -1.009097,-0.760941 -1.287636,-1.33197 l -0.261023,-0.535152 -0.01965,-6.294916 c -0.01935,-6.205396 -0.01751,-6.291497 0.130843,-6.054418 0.08277,0.132279 1.355222,2.309453 2.827689,4.838161 l 2.67722,4.597662 -0.03073,1.454994 c -0.02889,1.364713 -0.04357,1.482948 -0.23769,1.905531 -0.113832,0.247801 -0.345093,0.605125 -0.513905,0.794065 l -0.306949,0.343508 0.317676,-0.0576 c 1.216531,-0.220456 3.724463,-0.978169 5.206335,-1.572972 0.763403,-0.306423 2.616755,-1.166947 2.616035,-1.214648 -2.14e-4,-0.01409 -0.31292,-0.03171 -0.694913,-0.03923 -1.06117,-0.02085 -1.868923,-0.362646 -2.589094,-1.09569 -0.212413,-0.216209 -1.765761,-2.758189 -4.37952,-7.166893 l -4.050357,-6.831839 -2.499782,0.01828 -2.499781,0.01828 -3.946738,6.774169 c -4.147373,7.118534 -4.328254,7.395146 -5.152512,7.879722 -0.706954,0.415623 -1.653582,0.542856 -2.539444,0.341328 -0.347203,-0.07903 1.668065,0.897466 2.700242,1.308348 1.658027,0.659995 3.922569,1.348612 5.198467,1.580769 l 0.314203,0.05713 -0.297037,-0.350297 c -0.163375,-0.192673 -0.393917,-0.549806 -0.51231,-0.793656 -0.205683,-0.423611 -0.216557,-0.508255 -0.244139,-1.89939 l -0.02889,-1.456012 2.677551,-4.596625 c 1.472662,-2.528156 2.745126,-4.704862 2.827709,-4.837151 0.147901,-0.236899 0.149856,-0.146466 0.130521,6.054427 l -0.01965,6.294906 -0.261033,0.535153 c -0.278043,0.57003 -0.757597,1.064907 -1.269732,1.310299 -0.162723,0.07798 -0.257113,0.154835 -0.209738,0.170793 0.464148,0.156406 4.613582,0.178429 5.989413,0.0318 z m 25.493445,-6.109023 v -6.262067 l -0.29092,0.429876 c -2.398409,3.544038 -5.661564,6.78768 -9.254941,9.199591 -1.520144,1.020338 -3.407478,2.079799 -4.590688,2.57699 -0.240239,0.100954 -0.470761,0.213734 -0.512252,0.250619 -0.04153,0.03685 3.237508,0.06703 7.286679,0.06703 h 7.362122 z m -44.293548,1.587245 c -0.830492,-0.909463 -1.135388,-2.009913 -0.885978,-3.197702 0.132495,-0.631041 -0.567222,0.593033 6.27266,-10.973156 l 3.725309,-6.299448 -0.238819,-3.881834 c -0.411375,-6.686849 -0.474029,-7.620172 -0.516142,-7.688973 -0.02256,-0.03685 -1.300592,-1.070029 -2.840109,-2.296056 -1.539527,-1.226007 -3.388814,-2.701385 -4.109539,-3.278613 -0.720726,-0.577218 -2.775695,-2.216039 -4.566587,-3.641802 -1.790892,-1.425773 -3.392373,-2.722352 -3.558841,-2.881272 -0.166478,-0.158929 -0.430146,-0.548749 -0.585955,-0.866264 -0.270797,-0.551882 -0.28168,-0.606601 -0.247114,-1.242594 0.02568,-0.472626 0.08656,-0.763968 0.210321,-1.006008 0.0958,-0.187388 0.146637,-0.338648 0.112986,-0.336123 -0.146268,0.011 -1.851222,2.236474 -2.698802,3.52278 -4.7926835,7.273512 -6.3383009,16.382726 -4.2316555,24.939602 0.9894913,4.019159 2.8419645,7.932537 5.3335865,11.26724 1.774018,2.374292 4.270609,4.846358 6.628364,6.563244 0.723342,0.526727 2.406802,1.640478 2.48209,1.642096 0.01644,3.15e-4 -0.11212,-0.154939 -0.285775,-0.345117 z M 11.935814,34.236136 c -0.655709,-0.20207 -1.303918,-0.696662 -1.614776,-1.232101 -0.844415,-1.45447 -0.3759637,-3.196797 1.072656,-3.989614 l 0.502409,-0.274965 4.094746,-0.02276 4.094756,-0.02276 3.370616,2.619122 c 1.853838,1.440512 3.477835,2.703976 3.608881,2.807682 l 0.238255,0.188578 -7.584505,-0.0057 c -4.171473,-0.0038 -7.673836,-0.03352 -7.783038,-0.06722 z M 55.161141,64.925094 C 62.22395,60.18845 67.017752,53.046969 68.634678,44.85314 69.959701,38.138574 69.116604,31.243885 66.222244,25.124522 65.448435,23.488501 64.485,21.831475 63.510419,20.460392 c -0.607351,-0.854468 -1.724026,-2.265007 -1.762424,-2.226255 -0.0179,0.01799 0.01167,0.167327 0.06546,0.331864 0.139547,0.42681 0.05437,1.367855 -0.16356,1.80551 -0.315507,0.633822 -0.53503,0.847251 -2.361061,2.295599 -0.993439,0.787961 -4.236482,3.35703 -7.206742,5.709023 -6.691427,5.298572 -6.472643,5.121809 -6.472643,5.229152 0,0.04894 -0.08938,1.55352 -0.19869,3.343548 -0.10929,1.790019 -0.265205,4.349633 -0.346484,5.68802 l -0.147775,2.433438 2.304574,3.899801 c 1.267523,2.144896 3.455766,5.847872 4.862759,8.228848 1.407002,2.380976 2.612475,4.437277 2.678844,4.569556 0.194595,0.387906 0.320312,1.161796 0.269086,1.656521 -0.05651,0.545141 -0.375234,1.38466 -0.694952,1.830189 -0.126797,0.176687 -0.211713,0.321248 -0.188711,0.321248 0.02305,0 0.478901,-0.293112 1.013095,-0.65136 z M 49.255963,34.087842 c 0.149205,-0.119711 1.739569,-1.380728 3.534148,-2.802254 l 3.262863,-2.584589 4.021384,-9.52e-4 c 4.487496,-9.52e-4 4.476486,-0.0019 5.195247,0.549511 0.445299,0.341719 0.86713,0.930295 1.003914,1.400751 0.0533,0.183532 0.09766,0.606905 0.09844,0.940817 9.72e-4,0.525003 -0.03355,0.678924 -0.25759,1.138163 -0.286602,0.587654 -0.751265,1.05432 -1.34784,1.353659 l -0.374572,0.187941 -7.703627,0.01723 -7.703627,0.01723 z m 1.657512,-12.022344 c 3.61247,-2.854954 6.756959,-5.287991 6.987735,-5.406724 0.685732,-0.352806 1.196252,-0.373262 2.241832,-0.08982 0.365809,0.09916 -1.855774,-1.926169 -3.366084,-3.068739 l -0.784994,-0.593849 h -8.698943 c -4.784427,0 -8.683032,0.01608 -8.66356,0.03571 0.01945,0.01962 0.320263,0.09367 0.668439,0.164499 0.386506,0.07862 0.926895,0.274298 1.387531,0.502441 1.320199,0.653857 2.370963,1.896272 2.824431,3.339568 0.81282,2.587073 -0.36223,5.475085 -2.738191,6.729932 -0.890754,0.470437 -1.589839,0.644324 -2.587937,0.643667 -1.070099,-5.9e-4 -1.539839,-0.1068 -2.461977,-0.556071 -1.176928,-0.573419 -1.977658,-1.358353 -2.573095,-2.522338 -0.497235,-0.971989 -0.597733,-1.413091 -0.593638,-2.60545 0.0029,-0.904776 0.03122,-1.126716 0.213152,-1.683508 0.301356,-0.922262 0.717672,-1.593093 1.443601,-2.326154 0.727067,-0.734214 1.594721,-1.230171 2.542419,-1.453252 0.305762,-0.07197 0.627407,-0.159516 0.714774,-0.194533 0.08734,-0.035 -3.741473,-0.06612 -8.50852,-0.0691 l -8.667353,-0.0053 -0.704075,0.532835 c -1.293191,0.97868 -3.2772,2.737099 -3.699079,3.278495 l -0.148932,0.191116 0.38069,-0.177346 c 0.308223,-0.143593 0.524322,-0.177363 1.135174,-0.177411 0.647101,-5.3e-5 0.816642,0.02956 1.191283,0.208007 0.240346,0.114481 2.187066,1.571469 4.328322,3.239444 3.657822,2.849328 4.57783,3.567184 7.941891,6.196809 l 1.350116,1.055357 6.138414,9.52e-4 6.138423,9.52e-4 z M 11.210381,17.847317 c 0.894332,-1.18327 2.158715,-2.607984 3.373748,-3.801594 0.5964,-0.585885 1.084366,-1.081924 1.084366,-1.102303 0,-0.02039 -1.304453,-0.03707 -2.898785,-0.03707 H 9.8709243 v 3.416443 3.416435 l 0.3707887,-0.550444 c 0.203932,-0.302749 0.639836,-0.906426 0.968668,-1.34148 z m 55.20675,-1.533835 v -3.407119 h -2.898785 c -1.594332,0 -2.898785,0.01667 -2.898785,0.03707 0,0.0204 0.487966,0.516418 1.084366,1.102304 1.665039,1.635671 3.566943,3.90625 4.44904,5.311457 0.12345,0.196662 0.233392,0.358886 0.244314,0.360495 0.01089,0.0019 0.01984,-1.530269 0.01984,-3.404192 z M 50.742806,9.9300588 C 50.302846,9.695803 48.832976,9.132591 47.65069,8.7452645 41.550411,6.7467249 34.724865,6.7469143 28.638183,8.7458082 27.472032,9.1287777 25.961187,9.7081359 25.532072,9.9368998 25.23977,10.092725 25.295918,10.093423 38.144023,10.093423 h 12.905566 z"
       id="path1" /></g></svg>
