<?xml version="1.0" encoding="UTF-8" standalone="no"?>
<!-- Created with Inkscape (http://www.inkscape.org/) -->

<svg
   width="67.042465mm"
   height="61.922775mm"
   viewBox="0 0 67.042466 61.922776"
   version="1.1"
   id="svg1"
   xml:space="preserve"
   inkscape:version="1.3.2 (091e20e, 2023-11-25, custom)"
   sodipodi:docname="icono facebook.svg"
   xmlns:inkscape="http://www.inkscape.org/namespaces/inkscape"
   xmlns:sodipodi="http://sodipodi.sourceforge.net/DTD/sodipodi-0.dtd"
   xmlns="http://www.w3.org/2000/svg"
   xmlns:svg="http://www.w3.org/2000/svg"><sodipodi:namedview
     id="namedview1"
     pagecolor="#ffffff"
     bordercolor="#000000"
     borderopacity="0.25"
     inkscape:showpageshadow="2"
     inkscape:pageopacity="0.0"
     inkscape:pagecheckerboard="0"
     inkscape:deskcolor="#d1d1d1"
     inkscape:document-units="mm"
     inkscape:zoom="0.69219276"
     inkscape:cx="397.28818"
     inkscape:cy="135.07798"
     inkscape:window-width="1920"
     inkscape:window-height="991"
     inkscape:window-x="-9"
     inkscape:window-y="-9"
     inkscape:window-maximized="1"
     inkscape:current-layer="layer1" /><defs
     id="defs1"><pattern
       id="EMFhbasepattern"
       patternUnits="userSpaceOnUse"
       width="6"
       height="6"
       x="0"
       y="0" /></defs><g
     inkscape:label="Capa 1"
     inkscape:groupmode="layer"
     id="layer1"
     transform="translate(0,-7.6447876)"><path
       style="fill:#0000ff;stroke-width:0.875241"
       d="M 31.408259,66.339941 C 26.83004,65.628864 22.197671,63.731411 18.593706,61.091004 16.628002,59.650852 13.403955,56.298208 12.09738,54.335558 7.5395414,47.489086 6.0666221,39.555557 7.9160991,31.814081 9.6102625,24.722713 13.893435,18.683403 20.079804,14.663154 c 8.830062,-5.7382693 20.401316,-5.9926168 29.50411,-0.64853 2.323323,1.36398 4.057936,2.747835 6.095132,4.862628 3.969864,4.121079 6.517519,9.152422 7.476763,14.765778 0.333963,1.954311 0.375268,2.756395 0.288893,5.60963 -0.110323,3.644515 -0.332641,4.965865 -1.358075,8.071711 -2.285817,6.923326 -7.459029,12.910507 -13.983952,16.184217 -4.221303,2.117933 -7.210785,2.83978 -12.162283,2.936732 -1.882223,0.03685 -3.921682,-0.01056 -4.532133,-0.105379 z M 31.130782,55.066665 v -8.878038 h -3.422223 -3.422223 v -3.884141 -3.884142 h 3.422223 3.422223 v -3.706981 c 0,-2.655232 0.08299,-4.111463 0.292487,-5.132616 0.909272,-4.431963 3.815067,-7.057673 8.454171,-7.639286 1.408448,-0.17658 4.662938,-0.02401 6.809879,0.319258 l 0.722142,0.115458 v 3.305626 3.305625 h -2.093749 c -2.565712,0 -3.755241,0.310156 -4.62542,1.206025 -0.898694,0.925226 -1.0502,1.668225 -1.0502,5.150283 v 3.076608 h 3.699704 c 2.837922,0 3.699045,0.05385 3.696909,0.231199 -0.0018,0.127159 -0.250012,1.812599 -0.552167,3.745422 -0.302154,1.932822 -0.550635,3.576647 -0.552167,3.652943 -0.0018,0.0763 -1.41792,0.138719 -3.147534,0.138719 h -3.144745 v 8.881563 8.881562 l 0.508709,-0.115316 c 3.035296,-0.688045 4.471212,-1.179839 6.766045,-2.317345 2.676359,-1.326617 4.412005,-2.589796 6.697909,-4.874639 3.828897,-3.827115 6.174926,-8.216793 7.241814,-13.550209 0.487999,-2.439523 0.441091,-7.295895 -0.0946,-9.795124 -1.9731,-9.205308 -8.415282,-16.528698 -17.131096,-19.474419 -2.97565,-1.005692 -4.30873,-1.200292 -8.243436,-1.203351 -3.857093,-0.003 -5.207477,0.186295 -8.129614,1.139588 -7.438677,2.426732 -13.661797,8.493888 -16.281902,15.873847 -1.0083493,2.84018 -1.3133414,4.525053 -1.4229383,7.860764 -0.1534571,4.670617 0.5196513,7.984589 2.4326233,11.976741 1.308286,2.730245 2.571547,4.542932 4.718345,6.770477 2.801979,2.907372 5.602188,4.815259 9.144184,6.230276 1.3235,0.528734 4.470895,1.439658 5.053416,1.462568 0.181899,0.0072 0.231231,-1.88497 0.231231,-8.868945 z"
       id="path1" /></g></svg>
