<?xml version="1.0" encoding="UTF-8" standalone="no"?>
<!-- Created with Inkscape (http://www.inkscape.org/) -->

<svg
   width="69.718147mm"
   height="71.861008mm"
   viewBox="0 0 69.718147 71.861008"
   version="1.1"
   id="svg1"
   xml:space="preserve"
   inkscape:version="1.3.2 (091e20e, 2023-11-25, custom)"
   sodipodi:docname="mente.svg"
   xmlns:inkscape="http://www.inkscape.org/namespaces/inkscape"
   xmlns:sodipodi="http://sodipodi.sourceforge.net/DTD/sodipodi-0.dtd"
   xmlns="http://www.w3.org/2000/svg"
   xmlns:svg="http://www.w3.org/2000/svg"><sodipodi:namedview
     id="namedview1"
     pagecolor="#ffffff"
     bordercolor="#000000"
     borderopacity="0.25"
     inkscape:showpageshadow="2"
     inkscape:pageopacity="0.0"
     inkscape:pagecheckerboard="0"
     inkscape:deskcolor="#d1d1d1"
     inkscape:document-units="mm"
     inkscape:zoom="0.69219276"
     inkscape:cx="397.28818"
     inkscape:cy="529.47679"
     inkscape:window-width="1920"
     inkscape:window-height="991"
     inkscape:window-x="-9"
     inkscape:window-y="-9"
     inkscape:window-maximized="1"
     inkscape:current-layer="layer1" /><defs
     id="defs1" /><g
     inkscape:label="Capa 1"
     inkscape:groupmode="layer"
     id="layer1"
     transform="translate(0,-8.027027)"><path
       style="fill:#000000"
       d="m 25.478913,74.292359 c -1.223445,-0.29141 -2.980616,-1.39999 -4.17643,-2.63488 -0.762602,-0.78752 -1.264246,-1.08304 -1.852083,-1.09106 -2.102119,-0.0287 -5.093622,-1.788995 -6.490442,-3.819205 -0.986906,-1.43442 -1.908277,-3.87486 -1.908881,-5.05606 -4.75e-4,-0.92711 1.064642,-3.18774 1.826079,-3.87572 0.413699,-0.37379 0.676218,-0.41058 1.415913,-0.19844 0.49943,0.14324 1.712513,0.26043 2.695739,0.26043 h 1.787684 l 0.0015,0.99219 c 0.006,4.01537 2.574348,5.82075 6.537548,4.5954 1.899755,-0.58737 3.261073,-1.27458 1.795352,-0.90632 -0.436563,0.10969 -1.572017,0.18903 -2.523232,0.17632 -3.065928,-0.041 -4.223644,-1.17617 -4.223644,-4.14151 0,-1.18476 0.112769,-1.52294 0.686598,-2.05902 0.377629,-0.35279 0.849182,-0.95386 1.047896,-1.33572 l 0.361298,-0.69428 -1.907792,0.95887 c -1.631322,0.81991 -2.157016,0.95615 -3.627583,0.94018 -2.422723,-0.0263 -3.446508,-0.4515 -4.972609,-2.06513 -1.671039,-1.76688 -2.6406559,-3.66904 -2.8738599,-5.63786 -0.168772,-1.42485 -0.199456,-1.47999 -0.414547,-0.74499 -0.325442,1.11208 -0.03916,3.67068 0.563041,5.03205 0.278889,0.63048 0.9940979,1.67468 1.5893529,2.32046 1.08105,1.1728 1.08172,1.17485 0.588868,1.8056 -0.271378,0.34731 -0.788934,1.21523 -1.150125,1.92871 l -0.6567109,1.29723 -0.816276,-1.63351 c -0.940718,-1.88254 -1.250959,-3.85037 -0.895847,-5.68225 0.218437,-1.12682 0.173514,-1.41364 -0.371772,-2.37364 -1.253428,-2.2067 -1.096936,-5.14033 0.440833,-8.26398 l 0.804234,-1.63364 -0.54651,-0.89643 c -0.888413,-1.45726 -0.704358,-3.47147 0.436952,-4.7818 0.309039,-0.3548 0.514097,-0.38844 1.004824,-0.16485 1.1049029,0.50342 1.9626759,0.0587 2.5408669,-1.31747 1.571624,-3.74056 2.457559,-5.21754 3.613506,-6.02424 0.422221,-0.29465 0.454418,-0.0772 0.455697,3.07819 7.85e-4,1.93569 0.116485,3.51034 0.269147,3.66301 0.147273,0.14727 0.518817,0.20212 0.825652,0.12188 0.534908,-0.13989 0.552311,-0.26342 0.422607,-2.99991 -0.195518,-4.12501 -0.09929,-4.43124 2.062398,-6.56315 1.013528,-0.99956 1.842778,-2.01529 1.842778,-2.25716 0,-0.24188 -0.297131,-0.63447 -0.660291,-0.87242 -0.694472,-0.45504 -1.712955,-0.39116 -3.573042,0.22407 l -0.926042,0.3063 1.406368,0.18283 c 0.773502,0.10055 1.479197,0.25565 1.568211,0.34467 0.312661,0.31266 -1.405247,1.7918 -3.142737,2.70593 -0.965612,0.50804 -1.999023,1.184 -2.296469,1.50215 -0.906619,0.96972 -2.415071,3.65906 -2.880445,5.13539 -0.443226,1.40608 -0.764542,1.66303 -1.3488859,1.07868 -0.402328,-0.40232 -0.404137,-1.48536 -0.0051,-3.06996 0.2322699,-0.92243 0.6732779,-1.60145 1.7197919,-2.64796 0.793078,-0.79308 1.40742,-1.64634 1.40742,-1.95478 0,-2.88902 3.197335,-6.07218 6.406088,-6.37768 1.769276,-0.16845 2.457401,0.22987 3.65239,2.11417 0.699658,1.10324 0.712297,1.18547 0.345771,2.24932 -0.390547,1.13357 -0.285415,2.74682 0.24677,3.78669 0.14895,0.29104 0.803659,1.10425 1.45491,1.80713 1.113683,1.20197 1.173946,1.34357 1.013473,2.38125 -0.09384,0.6068 -0.415672,1.44006 -0.715183,1.85169 -0.791173,1.08731 -0.482779,1.10333 0.760109,0.0395 2.041951,-1.74783 2.024889,-3.20857 -0.06356,-5.44128 -1.747261,-1.86797 -1.971264,-4.19204 -0.459527,-4.76767 1.65779,-0.63125 3.188983,-0.7577 4.324351,-0.35712 0.609739,0.21513 1.151239,0.34852 1.203339,0.29642 0.0521,-0.0521 -0.15145,-0.40769 -0.45233,-0.7902 -0.775295,-0.98562 -2.306129,-1.34326 -4.129496,-0.96473 -0.802032,0.1665 -1.48295,0.26257 -1.51315,0.21347 -0.774453,-1.25893 -1.750053,-2.50947 -2.354612,-3.01817 l -0.769551,-0.64754 0.497727,-0.85761 c 0.27375,-0.47168 0.938889,-1.1454 1.478087,-1.49715 1.190976,-0.77695 1.095316,-0.9786 -0.258402,-0.5447 -1.270941,0.40736 -2.64246,1.41858 -2.861942,2.11011 -0.118663,0.37387 -0.400292,0.52934 -0.958886,0.52934 h -0.790879 l 0.477979,-0.81962 c 0.986886,-1.69228 2.246694,-2.5125 6.178736,-4.02277 3.44331,-1.32256 5.680089,-1.18319 6.501419,0.40508 0.38921,0.75266 0.38714,0.79805 -0.0292,0.6383 -1.04072,-0.39936 -1.78328,-0.48129 -2.715879,-0.29965 l -0.990449,0.19291 1.33923,0.44417 c 1.988148,0.65939 3.026398,1.48601 3.026398,2.40953 v 0.764 l -1.0916,-0.38514 c -1.35838,-0.47926 -3.547775,-0.47823 -4.596944,0.002 -0.780556,0.35741 -0.767362,0.36381 0.79375,0.38515 1.177459,0.0161 2.014625,0.22376 3.241144,0.804 l 1.65365,0.78231 v 3.69979 c 0,2.03488 -0.0893,3.75475 -0.19844,3.82193 -0.10914,0.0672 -0.73422,0.20227 -1.38906,0.3002 -1.0127,0.15145 -1.338901,0.0774 -2.182815,-0.49543 -1.23786,-0.84025 -1.358523,-0.31403 -0.220141,0.96004 0.711552,0.79636 0.898136,0.86407 2.381246,0.86407 h 1.60921 v 4.16718 c 0,2.29196 -0.10673,4.16719 -0.23718,4.16719 -0.13044,0 -0.60669,-0.42086 -1.05833,-0.93525 -0.56881,-0.64783 -0.82116,-1.20752 -0.82116,-1.82122 0,-0.83724 -0.4063,-1.19077 -1.389062,-1.20867 -0.328706,-0.006 -0.223336,1.80599 0.157991,2.71687 0.403669,0.96424 2.351661,2.83577 2.951621,2.83577 0.32205,0 0.39612,0.43965 0.39612,2.35121 v 2.35121 l -1.16293,0.17439 c -1.49168,0.22369 -3.906303,-0.58866 -5.052832,-1.69992 -1.096883,-1.06314 -1.309848,-1.00274 -0.693016,0.19655 1.109869,2.15789 2.656567,3.04532 5.255128,3.01519 l 1.65365,-0.0192 v 4.6039 4.6039 l -1.65365,0.81264 c -1.71447,0.84253 -3.198822,1.0803 -4.564061,0.73109 l -0.79375,-0.20303 0.817724,0.53613 c 1.255829,0.82338 2.891154,0.94248 4.672377,0.34029 l 1.52136,-0.51433 v 5.00323 5.00324 l -1.91823,0.8853 c -2.603251,1.20145 -4.783401,1.7261 -7.172697,1.7261 -3.305659,0 -6.014567,-1.27407 -7.653914,-3.59983 -0.447631,-0.63506 -0.851411,-1.11712 -0.897289,-1.07124 -0.267298,0.2673 0.903866,2.70151 1.777029,3.69348 1.365969,1.55182 3.233757,2.349 5.87876,2.509065 2.917122,0.17655 5.535718,-0.430075 9.655611,-2.236805 0.25157,-0.11032 0.33073,0.45738 0.33073,2.371875 v 2.51691 l -1.2448,0.82453 c -2.056158,1.36194 -4.113781,1.82007 -6.075699,1.35278 z M 15.417482,49.476904 c -1.412464,-2.86308 -1.633167,-7.31927 -0.521528,-10.53016 l 0.345167,-0.99699 0.59792,0.8397 c 1.078221,1.51423 2.751318,2.00896 4.221997,1.24844 1.01271,-0.52369 1.359564,-1.45172 1.37179,-3.67031 0.0058,-1.04818 0.169558,-2.79875 0.363961,-3.89016 0.194403,-1.09141 0.320285,-2.02244 0.279739,-2.06896 -0.04055,-0.0465 -0.448395,0.67649 -0.90633,1.60668 -0.591178,1.20086 -0.897025,2.29948 -1.054758,3.78876 -0.26323,2.48535 -0.417722,2.92847 -1.081527,3.10206 -1.271832,0.33259 -3.018426,-1.16549 -5.21827,-4.47579 -0.195432,-0.29408 -0.168079,-0.0779 0.06689,0.52874 0.374371,0.96648 0.357374,1.15145 -0.291749,3.175 -0.762242,2.37617 -0.922341,4.93278 -0.526884,8.41376 0.209388,1.84313 0.177424,2.12555 -0.344365,3.04271 l -0.575177,1.011 0.970706,-1.02746 c 0.849047,-0.89869 1.002131,-0.97131 1.221449,-0.57941 0.238341,0.42589 1.786076,2.26833 1.905504,2.26833 0.0311,0 -0.339944,-0.80367 -0.824533,-1.78594 z m 12.167434,0.30022 c 0.359023,-0.20256 0.06153,-0.27133 -1.226045,-0.28345 -3.00768,-0.0283 -6.130414,-2.01652 -7.335407,-4.6704 -0.474753,-1.0456 -0.500226,-1.06262 -0.505744,-0.338 -0.01524,2.00086 1.431595,4.37752 3.222234,5.29305 0.669184,0.34215 1.398045,0.42533 3.121955,0.3563 1.236927,-0.0495 2.46228,-0.21041 2.723007,-0.3575 z m 12.552567,24.496355 c -1.37251,-0.34429 -2.9133,-1.16289 -4.02343,-2.13759 l -0.93339,-0.81954 V 43.353994 15.391634 l 0.59531,-1.18054 c 0.83325,-1.65238 2.4179,-2.46352 4.43265,-2.26896 1.63575,0.15797 5.71983,1.59539 7.50445,2.64124 1.27063,0.74464 2.49982,2.13723 3.22059,3.6487 0.26982,0.56582 0.8092,1.11971 1.33415,1.37004 2.1006,1.00171 4.12783,3.52988 4.4898,5.59927 0.12589,0.71971 0.49815,1.36453 1.16349,2.01533 1.3397,1.31044 1.94886,2.69746 2.07803,4.73154 0.073,1.14948 0.265,1.89528 0.579,2.24896 1.37811,1.55227 1.79887,4.06908 0.99788,5.96889 -0.36451,0.86456 -0.35613,1.02162 0.10216,1.91494 1.37299,2.67622 1.57659,5.86094 0.52647,8.23491 -0.43386,0.9808 -0.50648,1.55002 -0.38406,3.01024 0.1901,2.2675 -0.38076,4.41444 -1.68502,6.33717 -0.51824,0.76398 -1.03357,1.38906 -1.14518,1.38906 -0.1116,0 -0.28574,0.44147 -0.38696,0.98105 -0.29168,1.55481 -1.57174,4.13731 -2.63293,5.31193 -1.34991,1.49418 -3.15137,2.584285 -5.17942,3.134165 -1.21108,0.32837 -2.07197,0.77495 -2.91041,1.50973 -2.27718,1.99563 -5.31776,2.89258 -7.74318,2.28418 z m 4.69231,-1.84003 c 0.61686,-0.29861 1.64495,-1.05866 2.28465,-1.689 0.9159,-0.90249 1.42721,-1.1856 2.40584,-1.332105 0.6835,-0.10233 1.96111,-0.54503 2.83913,-0.98378 2.40494,-1.20176 4.01771,-3.3356 4.82297,-6.38121 0.37801,-1.42972 0.12583,-2.49024 -1.01262,-4.25836 l -0.65319,-1.01447 -1.37056,0.22072 c -0.75381,0.1214 -2.05517,0.21327 -2.89192,0.20416 l -1.52135,-0.0166 v 1.28184 c 0,1.54709 -0.47906,2.75741 -1.44315,3.64608 -0.63092,0.58156 -0.94666,0.65951 -2.61379,0.64529 -1.12057,-0.01 -2.27497,-0.18619 -2.82223,-0.43182 l -0.92604,-0.41564 2.04788,-0.005 c 3.33981,-0.009 4.42331,-0.96145 4.43051,-3.89607 0.003,-1.29757 -0.0919,-1.64982 -0.51694,-1.91527 -0.51126,-0.31929 -1.58675,-2.07057 -1.15479,-1.8804 0.12123,0.0534 0.87527,0.44946 1.67563,0.88019 1.1955,0.64338 1.76214,0.78144 3.175,0.77355 2.49698,-0.0139 3.4619,-0.43358 5.12326,-2.22805 1.58606,-1.71313 2.53048,-3.77343 2.57865,-5.62546 l 0.029,-1.11456 0.23493,1.19063 c 0.44927,2.27694 -0.4599,5.03238 -2.3031,6.98002 -0.58441,0.61754 -0.66347,0.84367 -0.41622,1.19063 0.16786,0.23557 0.64894,1.08007 1.06905,1.87666 l 0.76385,1.44836 0.56554,-0.91919 c 1.1568,-1.8802 1.58367,-4.37221 1.10922,-6.47544 -0.1289,-0.57144 -0.013,-1.11217 0.41383,-1.93065 1.19626,-2.2939 1.05422,-4.86722 -0.43088,-7.8062 l -0.77553,-1.53476 0.51614,-0.84649 c 0.88349,-1.44898 0.56594,-3.91969 -0.63152,-4.9135 -0.26505,-0.21997 -0.44592,-0.23505 -0.56222,-0.0469 -0.2551,0.41275 -1.63191,0.33545 -2.08439,-0.11703 -0.21696,-0.21695 -0.53937,-0.84203 -0.71648,-1.38906 -0.53938,-1.66593 -1.54138,-3.47195 -2.5388,-4.57598 -0.52116,-0.57686 -1.023,-1.04911 -1.11521,-1.04945 -0.0922,-3.4e-4 -0.12753,0.9196 -0.0785,2.0443 0.049,1.1247 0.01,2.67984 -0.0871,3.45585 -0.15663,1.25367 -0.2403,1.40182 -0.7506,1.32914 -0.55536,-0.0791 -0.57164,-0.1779 -0.49321,-2.99222 0.0446,-1.60073 -0.0358,-3.29545 -0.17875,-3.76604 -0.15123,-0.49796 -0.93168,-1.47762 -1.86704,-2.3436 -1.61346,-1.49378 -1.9614,-2.29386 -1.2897,-2.96557 0.40431,-0.4043 1.63454,-0.37468 2.9898,0.072 1.02699,0.33847 1.03483,0.3499 0.26458,0.38592 -0.43656,0.0204 -1.07101,0.19093 -1.40989,0.37892 l -0.61613,0.34181 0.92532,0.81245 c 0.50893,0.44684 1.6699,1.20929 2.57993,1.69433 1.22184,0.65124 1.94977,1.28286 2.78315,2.41493 0.97606,1.32589 2.21991,3.95319 2.21991,4.68898 0,0.37111 0.43801,0.55323 0.90216,0.37512 0.59287,-0.2275 0.54629,-2.58099 -0.0783,-3.95607 -0.26808,-0.5902 -0.97984,-1.49459 -1.58169,-2.00975 -0.89,-0.76181 -1.09427,-1.10698 -1.09427,-1.84902 0,-2.4525 -3.23286,-5.59177 -6.10234,-5.9257 -1.33451,-0.15529 -1.54957,-0.10615 -2.30043,0.52566 -0.45557,0.38333 -1.08365,1.11013 -1.39575,1.61512 -0.52449,0.84863 -0.54166,1.01877 -0.22686,2.24706 0.4959,1.93489 0.0322,3.46354 -1.53535,5.06158 -1.14412,1.16638 -1.20543,1.3021 -1.06411,2.35572 0.0825,0.61492 0.41213,1.47264 0.73256,1.90604 l 0.58259,0.78799 -0.86405,-0.49788 c -1.05687,-0.60899 -1.84686,-1.82631 -1.84819,-2.8479 -10e-4,-0.91669 0.82795,-2.33361 1.69985,-2.9049 0.79144,-0.51857 1.31404,-2.04279 1.09703,-3.19958 -0.12489,-0.6657 -0.37234,-0.96688 -1.0184,-1.23952 -0.96038,-0.40529 -3.68527,-0.48015 -4.68989,-0.12885 l -0.66145,0.2313 0.64561,-0.69877 c 0.9416,-1.01913 2.27278,-1.34629 3.98438,-0.97922 0.77019,0.16518 1.42183,0.26809 1.44809,0.22869 0.0263,-0.0394 0.29819,-0.48835 0.60431,-0.99768 0.30612,-0.50932 0.92211,-1.27573 1.36886,-1.70314 0.44676,-0.42741 0.81229,-0.91737 0.81229,-1.0888 0,-0.48445 -1.05724,-1.71166 -1.96091,-2.27614 l -0.81722,-0.51049 0.79375,0.18059 c 1.23358,0.28065 2.12403,0.80749 2.87678,1.70209 0.521,0.61918 0.87026,0.8004 1.42058,0.73711 0.72224,-0.0831 0.71344,-0.10053 -0.85777,-1.70251 -1.12525,-1.14729 -1.97271,-1.75284 -2.91042,-2.07962 -0.7276,-0.25356 -1.8587,-0.67334 -2.51354,-0.93285 -2.67621,-1.06057 -4.81567,-0.89731 -5.68801,0.43405 -0.555,0.84703 -0.44969,0.94365 0.67651,0.62066 0.49861,-0.143 1.31959,-0.18252 1.82438,-0.0878 l 0.91781,0.17218 -1.13018,0.33371 c -1.76879,0.52226 -2.94657,1.44029 -2.9487,2.29838 -10e-4,0.40018 0.0287,0.7276 0.0661,0.7276 0.0373,0 0.48382,-0.12247 0.99218,-0.27216 1.1789,-0.34713 3.80138,-0.37598 4.38698,-0.0483 0.33537,0.18768 0.0542,0.28093 -1.10987,0.36801 -0.93627,0.07 -2.08752,0.38208 -2.88198,0.78115 l -1.32292,0.66452 v 3.67678 3.67678 l 1.13998,0.22544 c 0.93162,0.18424 1.33058,0.1261 2.18282,-0.31811 1.23233,-0.64233 1.35189,-0.29124 0.26943,0.79122 -0.6699,0.6699 -0.97085,0.77339 -2.24896,0.77339 h -1.47556 v 4.10715 4.10714 l 0.67498,-0.44227 c 0.7987,-0.52332 1.44169,-1.66894 1.44169,-2.56864 0,-0.70878 1.02298,-1.19076 1.36224,-0.64183 0.235,0.38024 0.003,1.68527 -0.46448,2.61683 -0.40349,0.80343 -1.71059,1.96846 -2.48383,2.21388 -0.47504,0.15077 -0.5306,0.3988 -0.5306,2.36867 0,2.05811 0.0385,2.21058 0.59532,2.35981 1.57719,0.42267 3.5656,-0.12941 5.29166,-1.46925 1.2043,-0.93482 1.26241,-0.66849 0.18014,0.82554 -1.08641,1.49975 -2.73447,2.23393 -4.65677,2.07452 l -1.42247,-0.11796 0.0722,4.51191 0.0722,4.51191 1.55032,0.79258 c 1.15539,0.59068 1.9137,0.79257 2.97682,0.79257 1.28256,0 1.36641,0.0334 0.83094,0.33081 -0.82265,0.45692 -3.19564,0.43105 -4.34055,-0.0473 -0.52242,-0.21829 -0.99485,-0.39688 -1.04984,-0.39688 -0.055,0 -0.1,2.18672 -0.1,4.85937 v 4.85937 l 1.81909,0.81338 c 5.6367,2.52037 10.35472,2.19941 13.4705,-0.91636 1.00972,-1.00973 1.36265,-1.2445 1.23145,-0.8192 -0.60705,1.96779 -2.27462,3.60969 -4.38034,4.31289 -2.79383,0.93301 -7.49048,0.35058 -10.83348,-1.34344 l -1.30722,-0.66242 v 2.50528 2.505285 l 1.22934,0.84581 c 2.38223,1.63902 4.76838,1.89827 7.09688,0.77106 z m 8.34576,-23.158425 c 1.3697,-2.86598 1.58741,-6.20198 0.62769,-9.61808 l -0.39878,-1.41944 -1.02191,1.01582 c -1.24844,1.24099 -2.16351,1.52592 -3.33227,1.03759 -1.28674,-0.53764 -1.61525,-1.4446 -1.77593,-4.90307 -0.0777,-1.67349 -0.21273,-3.34037 -0.29997,-3.70417 -0.0872,-0.3638 0.21692,0.0963 0.67591,1.02243 0.6213,1.25365 0.86744,2.16625 0.96337,3.57187 0.16753,2.45445 0.36726,2.81403 1.56306,2.81403 0.78986,0 1.16654,-0.2168 2.18349,-1.25677 0.67593,-0.69122 1.43196,-1.55442 1.68007,-1.91823 l 0.45111,-0.66145 -0.14071,0.66145 c -0.0774,0.36381 0.11181,1.37584 0.42043,2.24896 0.71286,2.01674 0.95002,5.38265 0.53445,7.58507 -0.26785,1.41959 -0.25457,1.87991 0.0829,2.87349 l 0.40185,1.18311 -0.68591,-0.78697 -0.6859,-0.78697 -0.42465,0.64602 c -0.23355,0.35531 -0.68429,0.94757 -1.00163,1.31614 -0.49419,0.57395 -0.46788,0.4418 0.18334,-0.92083 z m -10.45427,0.42215 c -0.71722,-0.16277 -0.65633,-0.19935 0.63159,-0.37949 2.64678,-0.3702 5.1571,-2.15821 6.3749,-4.5406 l 0.53921,-1.05487 -0.16509,1.05834 c -0.6115,3.92 -3.44751,5.80922 -7.38061,4.91662 z"
       id="path1" /></g></svg>
