<?xml version="1.0" encoding="UTF-8" standalone="no"?>
<!-- Created with Inkscape (http://www.inkscape.org/) -->

<svg
   width="74.857971mm"
   height="78.069916mm"
   viewBox="0 0 74.857971 78.069914"
   version="1.1"
   id="svg1"
   xml:space="preserve"
   inkscape:version="1.3.2 (091e20e, 2023-11-25, custom)"
   sodipodi:docname="om.svg"
   xmlns:inkscape="http://www.inkscape.org/namespaces/inkscape"
   xmlns:sodipodi="http://sodipodi.sourceforge.net/DTD/sodipodi-0.dtd"
   xmlns="http://www.w3.org/2000/svg"
   xmlns:svg="http://www.w3.org/2000/svg"><sodipodi:namedview
     id="namedview1"
     pagecolor="#ffffff"
     bordercolor="#000000"
     borderopacity="0.25"
     inkscape:showpageshadow="2"
     inkscape:pageopacity="0.0"
     inkscape:pagecheckerboard="0"
     inkscape:deskcolor="#d1d1d1"
     inkscape:document-units="mm"
     inkscape:zoom="0.4894542"
     inkscape:cx="420.87697"
     inkscape:cy="447.43717"
     inkscape:window-width="1554"
     inkscape:window-height="1020"
     inkscape:window-x="354"
     inkscape:window-y="53"
     inkscape:window-maximized="0"
     inkscape:current-layer="layer1" /><defs
     id="defs1" /><g
     inkscape:label="Capa 1"
     inkscape:groupmode="layer"
     id="layer1"
     transform="translate(-33.515223,-85.950331)"><path
       style="fill:#000000;stroke-width:1.73658"
       d="m 53.82147,157.11622 c -4.347551,-2.16455 -6.869397,-6.32799 -7.993073,-13.19623 -0.379837,-2.32166 -1.203453,-5.10854 -1.991683,-6.73928 l -1.34402,-2.78058 0.743095,0.64496 0.743093,0.64495 -1.083945,-2.07612 c -0.596172,-1.14188 -2.435126,-3.87378 -4.086568,-6.07094 -3.665636,-4.87694 -3.681815,-4.99841 -0.331877,-2.49138 5.934154,4.441 10.936734,11.04637 12.052243,15.91373 1.114761,4.86408 2.657772,6.52338 6.015839,6.46922 1.741254,0.25032 2.884676,-0.49496 4.398469,-1.28513 5.728216,-2.99001 10.012109,-11.94274 7.812636,-16.32734 L 67.03959,128.8138 c -1.267398,0.006 -4.356762,2.33234 -5.932441,4.46947 l -0.900175,1.22095 h -1.669508 c -1.869032,-0.68577 -2.53802,-0.98633 -3.799695,-2.41917 l -0.174996,-3.30411 -0.174995,-3.30413 0.571099,-0.73417 c 0.314108,-0.40377 1.284914,-1.05236 2.157354,-1.44126 4.212431,-1.8778 6.682561,-7.3823 4.564871,-10.1725 -4.057906,-1.94706 -6.53243,2.97774 -8.776081,6.15575 -3.260759,4.71881 -3.560988,4.73219 -6.441297,0.28701 -1.262477,-1.9484 -2.67568,-3.6713 -3.140451,-3.82868 -1.33732,-0.45284 -0.989397,-1.03811 0.823086,-1.3846 0.917467,-0.17542 3.369608,-1.35678 5.4492,-2.62531 8.394697,-5.12068 12.472933,-5.63111 16.107378,-2.016 0.353707,0.29295 2.930843,2.66479 1.720008,8.68842 -0.263485,1.31076 -0.79952,3.04434 -1.191188,3.8524 l -0.712126,1.46923 0.823412,-0.39064 c 3.311106,-1.44459 7.575206,0.51724 8.590939,3.71675 l 0.482114,1.51869 1.488148,0.78825 1.488127,0.78827 0.51405,-3.32084 c 0.89759,-5.79861 3.244941,-10.52383 7.709082,-12.9038 3.246664,-2.03201 6.824733,-0.89478 10.358542,0.58448 5.947363,2.88252 7.235883,10.8757 3.069713,19.04236 -2.297799,4.50417 -7.660659,8.63693 -11.048559,8.51433 l -0.921632,-0.0333 0.88967,-0.40787 0.889671,-0.40787 -1.3345,-0.0667 c -0.733986,-0.0366 -1.728689,-0.23108 -2.210487,-0.432 l -0.875989,-0.3653 -0.717089,1.23706 -1.630948,0.0455 c -0.975146,-0.43978 -5.054954,-3.32096 -5.462228,-6.79706 -6.29e-4,-0.73078 -0.35071,-2.01217 -0.777346,-2.84752 l -0.775677,-1.51884 -0.254528,4.74585 -0.25454,4.74587 -0.998969,3.1752 c -1.933125,6.14426 -5.969623,11.42021 -10.507992,13.73454 -3.244981,1.99276 -6.89511,1.91122 -10.231147,0.24379 z m 36.158898,-20.12057 c 3.610095,-2.58275 5.432947,-6.04858 5.432947,-10.32985 v -2.02339 l -0.778454,-1.01617 c -0.428153,-0.5589 -1.535979,-1.14562 -2.461851,-1.30379 l -1.683373,-0.28759 -1.685511,0.8109 c -3.594757,1.72942 -4.989306,5.86139 -3.839378,11.37583 0.414547,1.98793 0.63839,3.93508 0.497419,4.32698 l 0.955135,0.42104 c 0.666301,-0.16035 2.269676,-1.04864 3.563066,-1.97396 z M 70.207937,111.84129 68.65047,109.76538 c -1.845989,-2.46045 -3.257391,-4.95258 -3.715713,-6.56087 l -0.331378,-1.16284 2.098981,1.97118 c 13.531781,12.70766 17.645571,-7.66858 23.579942,-3.03903 l 0.821851,0.64115 -0.0395,1.48093 c -0.07885,2.9592 -4.162177,7.81543 -8.300009,9.87108 -4.268335,2.45168 -8.499764,0.88975 -12.556703,-1.12569 z m 6.071396,-10.55872 c -1.792275,-1.16608 -3.452942,-2.305649 -4.036301,-5.20775 -0.283936,-1.412456 -0.843089,-2.658547 -1.369455,-3.051892 l -0.88959,-0.664769 1.416416,-0.331902 c 1.999232,-0.468476 5.012751,0.557815 6.987365,2.379642 l 1.678818,1.548922 -0.03397,2.49779 -0.629048,2.138089 z"
       id="path1"
       sodipodi:nodetypes="ssscccsssscsccscccccsccssccssssccscccsssssccccsccccccccsscsccsscsscccccsccsccsccsscssccccs" /></g></svg>
